%FSLAX34Y34*%
%MOMM*%
%LNSILK_TOP*%
G71*
G01*
%ADD10C, 0.00*%
%ADD11C, 0.91*%
%ADD12R, 1.10X1.60*%
%ADD13R, 5.80X3.80*%
%ADD14C, 1.15*%
%ADD15C, 1.40*%
%ADD16C, 0.90*%
%ADD17R, 1.70X1.70*%
%ADD18C, 0.11*%
%ADD19R, 0.30X0.80*%
%ADD20R, 5.00X3.00*%
%ADD21C, 0.35*%
%ADD22C, 0.60*%
%ADD23C, 0.10*%
%ADD24R, 0.90X0.90*%
%LPD*%
G54D10*
X0Y1000000D02*
X210000Y1000000D01*
X210000Y790000D01*
X0Y790000D01*
X0Y1000000D01*
G36*
X0Y1000000D02*
X210000Y1000000D01*
X210000Y790000D01*
X0Y790000D01*
X0Y1000000D01*
G37*
%LPC*%
G36*
X1200Y813473D02*
X7927Y820200D01*
X17473Y820200D01*
X24200Y813473D01*
X24200Y803927D01*
X17473Y797200D01*
X7927Y797200D01*
X1200Y803927D01*
X1200Y813473D01*
G37*
G36*
X1200Y838873D02*
X7927Y845600D01*
X17473Y845600D01*
X24200Y838873D01*
X24200Y829327D01*
X17473Y822600D01*
X7927Y822600D01*
X1200Y829327D01*
X1200Y838873D01*
G37*
G36*
X1200Y864273D02*
X7927Y871000D01*
X17473Y871000D01*
X24200Y864273D01*
X24200Y854727D01*
X17473Y848000D01*
X7927Y848000D01*
X1200Y854727D01*
X1200Y864273D01*
G37*
G36*
X1200Y889673D02*
X7927Y896400D01*
X17473Y896400D01*
X24200Y889673D01*
X24200Y880127D01*
X17473Y873400D01*
X7927Y873400D01*
X1200Y880127D01*
X1200Y889673D01*
G37*
G36*
X1200Y915073D02*
X7927Y921800D01*
X17473Y921800D01*
X24200Y915073D01*
X24200Y905527D01*
X17473Y898800D01*
X7927Y898800D01*
X1200Y905527D01*
X1200Y915073D01*
G37*
G36*
X1200Y940473D02*
X7927Y947200D01*
X17473Y947200D01*
X24200Y940473D01*
X24200Y930927D01*
X17473Y924200D01*
X7927Y924200D01*
X1200Y930927D01*
X1200Y940473D01*
G37*
G36*
X1200Y965873D02*
X7927Y972600D01*
X17473Y972600D01*
X24200Y965873D01*
X24200Y956327D01*
X17473Y949600D01*
X7927Y949600D01*
X1200Y956327D01*
X1200Y965873D01*
G37*
G36*
X1200Y991273D02*
X7927Y998000D01*
X17473Y998000D01*
X24200Y991273D01*
X24200Y981727D01*
X17473Y975000D01*
X7927Y975000D01*
X1200Y981727D01*
X1200Y991273D01*
G37*
G36*
X128200Y991273D02*
X134927Y998000D01*
X144473Y998000D01*
X151200Y991273D01*
X151200Y981727D01*
X144473Y975000D01*
X134927Y975000D01*
X128200Y981727D01*
X128200Y991273D01*
G37*
G36*
X128200Y965873D02*
X134927Y972600D01*
X144473Y972600D01*
X151200Y965873D01*
X151200Y956327D01*
X144473Y949600D01*
X134927Y949600D01*
X128200Y956327D01*
X128200Y965873D01*
G37*
G36*
X128200Y940473D02*
X134927Y947200D01*
X144473Y947200D01*
X151200Y940473D01*
X151200Y930927D01*
X144473Y924200D01*
X134927Y924200D01*
X128200Y930927D01*
X128200Y940473D01*
G37*
G36*
X128200Y915073D02*
X134927Y921800D01*
X144473Y921800D01*
X151200Y915073D01*
X151200Y905527D01*
X144473Y898800D01*
X134927Y898800D01*
X128200Y905527D01*
X128200Y915073D01*
G37*
G36*
X128200Y889673D02*
X134927Y896400D01*
X144473Y896400D01*
X151200Y889673D01*
X151200Y880127D01*
X144473Y873400D01*
X134927Y873400D01*
X128200Y880127D01*
X128200Y889673D01*
G37*
G36*
X128200Y864273D02*
X134927Y871000D01*
X144473Y871000D01*
X151200Y864273D01*
X151200Y854727D01*
X144473Y848000D01*
X134927Y848000D01*
X128200Y854727D01*
X128200Y864273D01*
G37*
G36*
X128200Y838873D02*
X134927Y845600D01*
X144473Y845600D01*
X151200Y838873D01*
X151200Y829327D01*
X144473Y822600D01*
X134927Y822600D01*
X128200Y829327D01*
X128200Y838873D01*
G37*
G36*
X128200Y813473D02*
X134927Y820200D01*
X144473Y820200D01*
X151200Y813473D01*
X151200Y803927D01*
X144473Y797200D01*
X134927Y797200D01*
X128200Y803927D01*
X128200Y813473D01*
G37*
G54D11*
X198000Y988889D02*
X194667Y980000D01*
X191333Y988889D01*
G54D11*
X188889Y980000D02*
X188889Y988889D01*
X185556Y983333D01*
X182222Y988889D01*
X182222Y980000D01*
G54D11*
X174445Y987222D02*
X174445Y981667D01*
X175111Y980556D01*
X176445Y980000D01*
X177778Y980000D01*
X179111Y980556D01*
X179778Y981667D01*
X179778Y987222D01*
X179111Y988333D01*
X177778Y988889D01*
X176445Y988889D01*
X175111Y988333D01*
X174445Y987222D01*
G54D11*
X169334Y980000D02*
X169334Y988889D01*
G54D11*
X172001Y988889D02*
X166668Y988889D01*
G54D11*
X191333Y962444D02*
X188667Y962444D01*
X188667Y959667D01*
X189333Y958556D01*
X190667Y958000D01*
X192000Y958000D01*
X193333Y958556D01*
X194000Y959667D01*
X194000Y965222D01*
X193333Y966333D01*
X192000Y966889D01*
X190667Y966889D01*
X189333Y966333D01*
X188667Y965222D01*
G54D11*
X186223Y958000D02*
X186223Y966889D01*
X180890Y958000D01*
X180890Y966889D01*
G54D11*
X178446Y958000D02*
X178446Y966889D01*
X175113Y966889D01*
X173779Y966333D01*
X173113Y965222D01*
X173113Y959667D01*
X173779Y958556D01*
X175113Y958000D01*
X178446Y958000D01*
G54D11*
X186667Y932000D02*
X192000Y932000D01*
X192000Y932556D01*
X191333Y933667D01*
X187333Y937000D01*
X186667Y938111D01*
X186667Y939222D01*
X187333Y940333D01*
X188667Y940889D01*
X190000Y940889D01*
X191333Y940333D01*
X192000Y939222D01*
G54D11*
X184223Y932000D02*
X184223Y940889D01*
X180890Y940889D01*
X179556Y940333D01*
X178890Y939222D01*
X178890Y938111D01*
X179556Y937000D01*
X180890Y936444D01*
X179556Y935889D01*
X178890Y934778D01*
X178890Y933667D01*
X179556Y932556D01*
X180890Y932000D01*
X184223Y932000D01*
G54D11*
X184223Y936444D02*
X180890Y936444D01*
G54D11*
X186667Y906000D02*
X192000Y906000D01*
X192000Y906556D01*
X191333Y907667D01*
X187333Y911000D01*
X186667Y912111D01*
X186667Y913222D01*
X187333Y914333D01*
X188667Y914889D01*
X190000Y914889D01*
X191333Y914333D01*
X192000Y913222D01*
G54D11*
X184223Y906000D02*
X180890Y914889D01*
X177556Y906000D01*
G54D11*
X182890Y909333D02*
X178890Y909333D01*
G54D11*
X192000Y885556D02*
X188667Y888889D01*
X188667Y880000D01*
G54D11*
X186223Y880000D02*
X182890Y888889D01*
X179556Y880000D01*
G54D11*
X184890Y883333D02*
X180890Y883333D01*
G54D11*
X192000Y859556D02*
X188667Y862889D01*
X188667Y854000D01*
G54D11*
X186223Y854000D02*
X186223Y862889D01*
X182890Y862889D01*
X181556Y862333D01*
X180890Y861222D01*
X180890Y860111D01*
X181556Y859000D01*
X182890Y858444D01*
X181556Y857889D01*
X180890Y856778D01*
X180890Y855667D01*
X181556Y854556D01*
X182890Y854000D01*
X186223Y854000D01*
G54D11*
X186223Y858444D02*
X182890Y858444D01*
G54D11*
X192000Y838889D02*
X188667Y830000D01*
X185333Y838889D01*
G54D11*
X182889Y830000D02*
X182889Y838889D01*
X179556Y838889D01*
X178222Y838333D01*
X177556Y837222D01*
X177556Y831667D01*
X178222Y830556D01*
X179556Y830000D01*
X182889Y830000D01*
G54D11*
X175112Y830000D02*
X175112Y838889D01*
X171779Y838889D01*
X170445Y838333D01*
X169779Y837222D01*
X169779Y831667D01*
X170445Y830556D01*
X171779Y830000D01*
X175112Y830000D01*
G54D11*
X189333Y808444D02*
X186667Y808444D01*
X186667Y805667D01*
X187333Y804556D01*
X188667Y804000D01*
X190000Y804000D01*
X191333Y804556D01*
X192000Y805667D01*
X192000Y811222D01*
X191333Y812333D01*
X190000Y812889D01*
X188667Y812889D01*
X187333Y812333D01*
X186667Y811222D01*
G54D11*
X184223Y804000D02*
X184223Y812889D01*
X178890Y804000D01*
X178890Y812889D01*
G54D11*
X176446Y804000D02*
X176446Y812889D01*
X173113Y812889D01*
X171779Y812333D01*
X171113Y811222D01*
X171113Y805667D01*
X171779Y804556D01*
X173113Y804000D01*
X176446Y804000D01*
X118250Y928750D02*
G54D12*
D03*
X111750Y928750D02*
G54D12*
D03*
X105250Y928750D02*
G54D12*
D03*
X98750Y928750D02*
G54D12*
D03*
X92250Y928750D02*
G54D12*
D03*
X85750Y928750D02*
G54D12*
D03*
X79250Y928750D02*
G54D12*
D03*
X72750Y928750D02*
G54D12*
D03*
X66250Y928750D02*
G54D12*
D03*
X59750Y928750D02*
G54D12*
D03*
X53250Y928750D02*
G54D12*
D03*
X46750Y928750D02*
G54D12*
D03*
X40250Y928750D02*
G54D12*
D03*
X33750Y928750D02*
G54D12*
D03*
X118250Y866750D02*
G54D12*
D03*
X111750Y866750D02*
G54D12*
D03*
X105250Y866750D02*
G54D12*
D03*
X98750Y866750D02*
G54D12*
D03*
X92250Y866750D02*
G54D12*
D03*
X85750Y866750D02*
G54D12*
D03*
X79250Y866750D02*
G54D12*
D03*
X72750Y866750D02*
G54D12*
D03*
X66250Y866750D02*
G54D12*
D03*
X59750Y866750D02*
G54D12*
D03*
X53250Y866750D02*
G54D12*
D03*
X46750Y866750D02*
G54D12*
D03*
X40250Y866750D02*
G54D12*
D03*
X33750Y866750D02*
G54D12*
D03*
X75750Y897750D02*
G54D13*
D03*
G54D14*
X118250Y928750D02*
X118250Y965050D01*
X139700Y986500D01*
G54D14*
X33750Y928750D02*
X33750Y961250D01*
X59000Y986500D01*
X139700Y986500D01*
G54D14*
X53250Y928750D02*
X53250Y938750D01*
X53500Y939000D01*
G54D14*
X98750Y928750D02*
X98750Y938750D01*
X99000Y939000D01*
X53500Y939000D02*
G54D15*
D03*
X99000Y939000D02*
G54D15*
D03*
G54D14*
X53250Y866750D02*
X53250Y856250D01*
X53500Y856000D01*
G54D14*
X98750Y866750D02*
X98750Y856250D01*
X99000Y856000D01*
X53500Y856000D02*
G54D15*
D03*
X99000Y856000D02*
G54D15*
D03*
G54D14*
X46750Y866750D02*
X46750Y842750D01*
X12700Y808700D01*
G54D14*
X92250Y928750D02*
X92250Y939750D01*
X92500Y973500D01*
X88000Y978000D01*
X65500Y978000D01*
X40500Y953500D01*
X40500Y939000D01*
X40500Y939000D02*
G54D15*
D03*
G54D14*
X79250Y928750D02*
X79250Y901250D01*
X75750Y897750D01*
G54D14*
X72750Y866750D02*
X72750Y894750D01*
X75750Y897750D01*
G54D14*
X92250Y866750D02*
X92000Y858000D01*
X86000Y853000D01*
X79500Y857000D01*
X79250Y866750D01*
G54D14*
X105250Y928750D02*
X105250Y879750D01*
X101500Y876000D01*
X96500Y876000D01*
X92000Y871500D01*
G54D16*
X65500Y957600D02*
X65500Y965400D01*
X81100Y965400D01*
X81100Y957600D01*
X65500Y957600D01*
X65000Y961500D02*
G54D17*
D03*
X81700Y961400D02*
G54D17*
D03*
G54D16*
X65500Y945600D02*
X65500Y953400D01*
X81100Y953400D01*
X81100Y945600D01*
X65500Y945600D01*
X65000Y949500D02*
G54D17*
D03*
X81700Y949400D02*
G54D17*
D03*
G54D14*
X59750Y928750D02*
X59750Y944250D01*
X65000Y949500D01*
X65000Y961500D01*
G54D14*
X66250Y928750D02*
X66250Y935750D01*
X69500Y939000D01*
X71300Y939000D01*
X81700Y949400D01*
X81700Y961400D01*
%LPD*%
G36*
X5200Y811812D02*
X9588Y816200D01*
X15812Y816200D01*
X20200Y811812D01*
X20200Y805588D01*
X15812Y801200D01*
X9588Y801200D01*
X5200Y805588D01*
X5200Y811812D01*
G37*
G36*
X5200Y837212D02*
X9588Y841600D01*
X15812Y841600D01*
X20200Y837212D01*
X20200Y830988D01*
X15812Y826600D01*
X9588Y826600D01*
X5200Y830988D01*
X5200Y837212D01*
G37*
G36*
X5200Y862612D02*
X9588Y867000D01*
X15812Y867000D01*
X20200Y862612D01*
X20200Y856388D01*
X15812Y852000D01*
X9588Y852000D01*
X5200Y856388D01*
X5200Y862612D01*
G37*
G36*
X5200Y888012D02*
X9588Y892400D01*
X15812Y892400D01*
X20200Y888012D01*
X20200Y881788D01*
X15812Y877400D01*
X9588Y877400D01*
X5200Y881788D01*
X5200Y888012D01*
G37*
G36*
X5200Y913412D02*
X9588Y917800D01*
X15812Y917800D01*
X20200Y913412D01*
X20200Y907188D01*
X15812Y902800D01*
X9588Y902800D01*
X5200Y907188D01*
X5200Y913412D01*
G37*
G36*
X5200Y938812D02*
X9588Y943200D01*
X15812Y943200D01*
X20200Y938812D01*
X20200Y932588D01*
X15812Y928200D01*
X9588Y928200D01*
X5200Y932588D01*
X5200Y938812D01*
G37*
G36*
X5200Y964212D02*
X9588Y968600D01*
X15812Y968600D01*
X20200Y964212D01*
X20200Y957988D01*
X15812Y953600D01*
X9588Y953600D01*
X5200Y957988D01*
X5200Y964212D01*
G37*
G36*
X5200Y989612D02*
X9588Y994000D01*
X15812Y994000D01*
X20200Y989612D01*
X20200Y983388D01*
X15812Y979000D01*
X9588Y979000D01*
X5200Y983388D01*
X5200Y989612D01*
G37*
G36*
X132200Y989612D02*
X136588Y994000D01*
X142812Y994000D01*
X147200Y989612D01*
X147200Y983388D01*
X142812Y979000D01*
X136588Y979000D01*
X132200Y983388D01*
X132200Y989612D01*
G37*
G36*
X132200Y964212D02*
X136588Y968600D01*
X142812Y968600D01*
X147200Y964212D01*
X147200Y957988D01*
X142812Y953600D01*
X136588Y953600D01*
X132200Y957988D01*
X132200Y964212D01*
G37*
G36*
X132200Y938812D02*
X136588Y943200D01*
X142812Y943200D01*
X147200Y938812D01*
X147200Y932588D01*
X142812Y928200D01*
X136588Y928200D01*
X132200Y932588D01*
X132200Y938812D01*
G37*
G36*
X132200Y913412D02*
X136588Y917800D01*
X142812Y917800D01*
X147200Y913412D01*
X147200Y907188D01*
X142812Y902800D01*
X136588Y902800D01*
X132200Y907188D01*
X132200Y913412D01*
G37*
G36*
X132200Y888012D02*
X136588Y892400D01*
X142812Y892400D01*
X147200Y888012D01*
X147200Y881788D01*
X142812Y877400D01*
X136588Y877400D01*
X132200Y881788D01*
X132200Y888012D01*
G37*
G36*
X132200Y862612D02*
X136588Y867000D01*
X142812Y867000D01*
X147200Y862612D01*
X147200Y856388D01*
X142812Y852000D01*
X136588Y852000D01*
X132200Y856388D01*
X132200Y862612D01*
G37*
G36*
X132200Y837212D02*
X136588Y841600D01*
X142812Y841600D01*
X147200Y837212D01*
X147200Y830988D01*
X142812Y826600D01*
X136588Y826600D01*
X132200Y830988D01*
X132200Y837212D01*
G37*
G36*
X132200Y811812D02*
X136588Y816200D01*
X142812Y816200D01*
X147200Y811812D01*
X147200Y805588D01*
X142812Y801200D01*
X136588Y801200D01*
X132200Y805588D01*
X132200Y811812D01*
G37*
G54D18*
X198000Y988889D02*
X194667Y980000D01*
X191333Y988889D01*
G54D18*
X188889Y980000D02*
X188889Y988889D01*
X185556Y983333D01*
X182222Y988889D01*
X182222Y980000D01*
G54D18*
X174445Y987222D02*
X174445Y981667D01*
X175111Y980556D01*
X176445Y980000D01*
X177778Y980000D01*
X179111Y980556D01*
X179778Y981667D01*
X179778Y987222D01*
X179111Y988333D01*
X177778Y988889D01*
X176445Y988889D01*
X175111Y988333D01*
X174445Y987222D01*
G54D18*
X169334Y980000D02*
X169334Y988889D01*
G54D18*
X172001Y988889D02*
X166668Y988889D01*
G54D18*
X191333Y962444D02*
X188667Y962444D01*
X188667Y959667D01*
X189333Y958556D01*
X190667Y958000D01*
X192000Y958000D01*
X193333Y958556D01*
X194000Y959667D01*
X194000Y965222D01*
X193333Y966333D01*
X192000Y966889D01*
X190667Y966889D01*
X189333Y966333D01*
X188667Y965222D01*
G54D18*
X186223Y958000D02*
X186223Y966889D01*
X180890Y958000D01*
X180890Y966889D01*
G54D18*
X178446Y958000D02*
X178446Y966889D01*
X175113Y966889D01*
X173779Y966333D01*
X173113Y965222D01*
X173113Y959667D01*
X173779Y958556D01*
X175113Y958000D01*
X178446Y958000D01*
G54D18*
X186667Y932000D02*
X192000Y932000D01*
X192000Y932556D01*
X191333Y933667D01*
X187333Y937000D01*
X186667Y938111D01*
X186667Y939222D01*
X187333Y940333D01*
X188667Y940889D01*
X190000Y940889D01*
X191333Y940333D01*
X192000Y939222D01*
G54D18*
X184223Y932000D02*
X184223Y940889D01*
X180890Y940889D01*
X179556Y940333D01*
X178890Y939222D01*
X178890Y938111D01*
X179556Y937000D01*
X180890Y936444D01*
X179556Y935889D01*
X178890Y934778D01*
X178890Y933667D01*
X179556Y932556D01*
X180890Y932000D01*
X184223Y932000D01*
G54D18*
X184223Y936444D02*
X180890Y936444D01*
G54D18*
X186667Y906000D02*
X192000Y906000D01*
X192000Y906556D01*
X191333Y907667D01*
X187333Y911000D01*
X186667Y912111D01*
X186667Y913222D01*
X187333Y914333D01*
X188667Y914889D01*
X190000Y914889D01*
X191333Y914333D01*
X192000Y913222D01*
G54D18*
X184223Y906000D02*
X180890Y914889D01*
X177556Y906000D01*
G54D18*
X182890Y909333D02*
X178890Y909333D01*
G54D18*
X192000Y885556D02*
X188667Y888889D01*
X188667Y880000D01*
G54D18*
X186223Y880000D02*
X182890Y888889D01*
X179556Y880000D01*
G54D18*
X184890Y883333D02*
X180890Y883333D01*
G54D18*
X192000Y859556D02*
X188667Y862889D01*
X188667Y854000D01*
G54D18*
X186223Y854000D02*
X186223Y862889D01*
X182890Y862889D01*
X181556Y862333D01*
X180890Y861222D01*
X180890Y860111D01*
X181556Y859000D01*
X182890Y858444D01*
X181556Y857889D01*
X180890Y856778D01*
X180890Y855667D01*
X181556Y854556D01*
X182890Y854000D01*
X186223Y854000D01*
G54D18*
X186223Y858444D02*
X182890Y858444D01*
G54D18*
X192000Y838889D02*
X188667Y830000D01*
X185333Y838889D01*
G54D18*
X182889Y830000D02*
X182889Y838889D01*
X179556Y838889D01*
X178222Y838333D01*
X177556Y837222D01*
X177556Y831667D01*
X178222Y830556D01*
X179556Y830000D01*
X182889Y830000D01*
G54D18*
X175112Y830000D02*
X175112Y838889D01*
X171779Y838889D01*
X170445Y838333D01*
X169779Y837222D01*
X169779Y831667D01*
X170445Y830556D01*
X171779Y830000D01*
X175112Y830000D01*
G54D18*
X189333Y808444D02*
X186667Y808444D01*
X186667Y805667D01*
X187333Y804556D01*
X188667Y804000D01*
X190000Y804000D01*
X191333Y804556D01*
X192000Y805667D01*
X192000Y811222D01*
X191333Y812333D01*
X190000Y812889D01*
X188667Y812889D01*
X187333Y812333D01*
X186667Y811222D01*
G54D18*
X184223Y804000D02*
X184223Y812889D01*
X178890Y804000D01*
X178890Y812889D01*
G54D18*
X176446Y804000D02*
X176446Y812889D01*
X173113Y812889D01*
X171779Y812333D01*
X171113Y811222D01*
X171113Y805667D01*
X171779Y804556D01*
X173113Y804000D01*
X176446Y804000D01*
X118250Y928750D02*
G54D19*
D03*
X111750Y928750D02*
G54D19*
D03*
X105250Y928750D02*
G54D19*
D03*
X98750Y928750D02*
G54D19*
D03*
X92250Y928750D02*
G54D19*
D03*
X85750Y928750D02*
G54D19*
D03*
X79250Y928750D02*
G54D19*
D03*
X72750Y928750D02*
G54D19*
D03*
X66250Y928750D02*
G54D19*
D03*
X59750Y928750D02*
G54D19*
D03*
X53250Y928750D02*
G54D19*
D03*
X46750Y928750D02*
G54D19*
D03*
X40250Y928750D02*
G54D19*
D03*
X33750Y928750D02*
G54D19*
D03*
X118250Y866750D02*
G54D19*
D03*
X111750Y866750D02*
G54D19*
D03*
X105250Y866750D02*
G54D19*
D03*
X98750Y866750D02*
G54D19*
D03*
X92250Y866750D02*
G54D19*
D03*
X85750Y866750D02*
G54D19*
D03*
X79250Y866750D02*
G54D19*
D03*
X72750Y866750D02*
G54D19*
D03*
X66250Y866750D02*
G54D19*
D03*
X59750Y866750D02*
G54D19*
D03*
X53250Y866750D02*
G54D19*
D03*
X46750Y866750D02*
G54D19*
D03*
X40250Y866750D02*
G54D19*
D03*
X33750Y866750D02*
G54D19*
D03*
X75750Y897750D02*
G54D20*
D03*
G54D21*
X118250Y928750D02*
X118250Y965050D01*
X139700Y986500D01*
G54D21*
X33750Y928750D02*
X33750Y961250D01*
X59000Y986500D01*
X139700Y986500D01*
G54D21*
X53250Y928750D02*
X53250Y938750D01*
X53500Y939000D01*
G54D21*
X98750Y928750D02*
X98750Y938750D01*
X99000Y939000D01*
X53500Y939000D02*
G54D22*
D03*
X99000Y939000D02*
G54D22*
D03*
G54D21*
X53250Y866750D02*
X53250Y856250D01*
X53500Y856000D01*
G54D21*
X98750Y866750D02*
X98750Y856250D01*
X99000Y856000D01*
X53500Y856000D02*
G54D22*
D03*
X99000Y856000D02*
G54D22*
D03*
G54D21*
X46750Y866750D02*
X46750Y842750D01*
X12700Y808700D01*
G54D21*
X92250Y928750D02*
X92250Y939750D01*
X92500Y973500D01*
X88000Y978000D01*
X65500Y978000D01*
X40500Y953500D01*
X40500Y939000D01*
X40500Y939000D02*
G54D22*
D03*
G54D21*
X79250Y928750D02*
X79250Y901250D01*
X75750Y897750D01*
G54D21*
X72750Y866750D02*
X72750Y894750D01*
X75750Y897750D01*
G54D21*
X92250Y866750D02*
X92000Y858000D01*
X86000Y853000D01*
X79500Y857000D01*
X79250Y866750D01*
G54D21*
X105250Y928750D02*
X105250Y879750D01*
X101500Y876000D01*
X96500Y876000D01*
X92000Y871500D01*
G54D23*
X65500Y957600D02*
X65500Y965400D01*
X81100Y965400D01*
X81100Y957600D01*
X65500Y957600D01*
X65000Y961500D02*
G54D24*
D03*
X81700Y961400D02*
G54D24*
D03*
G54D23*
X65500Y945600D02*
X65500Y953400D01*
X81100Y953400D01*
X81100Y945600D01*
X65500Y945600D01*
X65000Y949500D02*
G54D24*
D03*
X81700Y949400D02*
G54D24*
D03*
G54D21*
X59750Y928750D02*
X59750Y944250D01*
X65000Y949500D01*
X65000Y961500D01*
G54D21*
X66250Y928750D02*
X66250Y935750D01*
X69500Y939000D01*
X71300Y939000D01*
X81700Y949400D01*
X81700Y961400D01*
M02*
